<?xml version="1.0" encoding="UTF-8"?>
<svg xmlns="http://www.w3.org/2000/svg" xmlns:xlink="http://www.w3.org/1999/xlink" width="2800pt" height="2800pt" viewBox="0 0 2800 2800" version="1.1">
<g id="surface1">
<rect x="0" y="0" width="2800" height="2800" style="fill:rgb(100%,100%,100%);fill-opacity:1;stroke:none;"/>
<path style=" stroke:none;fill-rule:nonzero;fill:rgb(93.75%,93.359375%,99.609375%);fill-opacity:1;" d="M 386.265625 2199.539062 C 346.597656 2090.761719 332.785156 1978.769531 369.15625 1873.949219 C 437.636719 1676.601562 629.128906 1662.878906 674.144531 1469.640625 C 721.292969 1267.269531 548.621094 1202.539062 587.269531 1010.921875 C 639.902344 749.941406 1063.640625 639.589844 1118.96875 625.179688 C 1604.171875 498.808594 2011.488281 781.070312 2036.410156 798.941406 C 2339.070312 1015.859375 2567.980469 1415.988281 2498.609375 1841.480469 C 2475.199219 1985.03125 2422.179688 2104.910156 2364.410156 2199.539062 L 386.265625 2199.539062 "/>
<path style=" stroke:none;fill-rule:nonzero;fill:rgb(93.75%,93.359375%,99.609375%);fill-opacity:1;" d="M 511.890625 1273.238281 C 479.148438 1234.980469 424.769531 1223.671875 379.527344 1245.769531 C 342.597656 1263.808594 299.882812 1294.648438 272.839844 1346.550781 C 231.222656 1426.429688 229.710938 1550.488281 298.875 1595.121094 C 372.335938 1642.519531 507.566406 1588.738281 550.902344 1487.191406 C 580.234375 1418.46875 564.535156 1334.738281 511.890625 1273.238281 "/>
<path style=" stroke:none;fill-rule:nonzero;fill:rgb(9.812927%,7.054138%,27.050781%);fill-opacity:1;" d="M 356.222656 1463.191406 C 326.253906 1397.199219 316.652344 1296.660156 368.953125 1244.941406 C 419.222656 1195.230469 483.183594 1233.648438 531.363281 1183.621094 C 579.773438 1133.351562 531.421875 1072.398438 567.269531 994.769531 C 614.78125 891.859375 780.46875 819.449219 885.484375 876.988281 C 931.890625 902.421875 975.484375 958.171875 973.746094 1021.730469 C 971.289062 1111.730469 879.359375 1164.050781 871.753906 1167.859375 C 860.058594 1173.71875 855.027344 1175.53125 855.023438 1175.53125 C 840.910156 1181.011719 835.277344 1180.550781 824.332031 1190.039062 C 776.570312 1231.449219 826.367188 1304.679688 785.679688 1356.609375 C 735.578125 1420.550781 653.363281 1381.300781 601.542969 1445.210938 C 551.246094 1507.238281 598.488281 1588.148438 559.363281 1609.648438 C 514.714844 1634.179688 401.089844 1561.980469 356.222656 1463.191406 "/>
<path style=" stroke:none;fill-rule:nonzero;fill:rgb(97.65625%,37.255859%,41.575623%);fill-opacity:1;" d="M 1019.21875 1818.621094 C 1028.390625 1700.789062 1028.851562 1562.871094 1009.648438 1410.511719 C 1002.570312 1354.320312 993.441406 1301.148438 982.996094 1251.191406 C 981.554688 1244.300781 976.535156 1238.730469 969.859375 1236.519531 C 909.140625 1216.449219 848.421875 1196.378906 787.703125 1176.300781 L 628.898438 1220.539062 C 608.910156 1306.648438 591.082031 1404.480469 579.382812 1512.578125 C 568.160156 1616.25 564.472656 1711.828125 565.144531 1797.269531 C 619.421875 1812.160156 686.132812 1825.730469 763.003906 1831.429688 C 864.683594 1838.96875 952.230469 1830.359375 1019.21875 1818.621094 "/>
<path style=" stroke:none;fill-rule:nonzero;fill:rgb(97.65625%,37.255859%,41.575623%);fill-opacity:1;" d="M 1019.21875 1818.621094 C 1028.390625 1700.789062 1028.851562 1562.871094 1009.648438 1410.511719 C 1002.488281 1353.640625 993.222656 1299.851562 982.613281 1249.359375 C 981.402344 1243.609375 981.703125 1222.390625 976.117188 1220.539062 C 937.894531 1207.910156 895.175781 1211.828125 856.949219 1199.199219 C 832.496094 1217.851562 823.878906 1243.359375 843.738281 1278.191406 C 902.09375 1380.570312 871.28125 1673.808594 848.699219 1834.191406 C 914.273438 1833.609375 971.894531 1826.910156 1019.21875 1818.621094 "/>
<path style=" stroke:none;fill-rule:nonzero;fill:rgb(96.484375%,63.084412%,61.914062%);fill-opacity:1;" d="M 975.300781 1220.378906 C 975.300781 1220.378906 1156.808594 1328.859375 1169.46875 1720.21875 C 1169.980469 1735.769531 1157.300781 1748.53125 1141.75 1748.210938 C 1107.820312 1747.488281 1038.480469 1738.761719 908.398438 1697.75 L 914.261719 1656.898438 L 1059.890625 1633.429688 C 1043.199219 1587.519531 1027.261719 1536.421875 1013.691406 1480.449219 C 990.328125 1384.050781 979.511719 1295.910156 975.300781 1220.378906 "/>
<path style=" stroke:none;fill-rule:nonzero;fill:rgb(96.484375%,63.084412%,61.914062%);fill-opacity:1;" d="M 626.378906 1220.539062 C 626.378906 1220.539062 441.996094 1330.738281 431.933594 1729.679688 C 431.683594 1739.660156 439.542969 1748.019531 449.527344 1748.328125 C 478.609375 1749.25 548.136719 1743.671875 693.277344 1697.921875 L 687.417969 1657.058594 L 541.792969 1633.601562 C 560.359375 1591.570312 578.601562 1542.421875 593.382812 1486.578125 C 620.582031 1383.808594 627.140625 1292 626.378906 1220.539062 "/>
<path style=" stroke:none;fill-rule:nonzero;fill:rgb(97.65625%,37.255859%,41.575623%);fill-opacity:1;" d="M 612.378906 1500.949219 C 614.125 1494.191406 615.835938 1487.359375 617.507812 1480.449219 C 640.875 1384.050781 624.902344 1295.910156 629.117188 1220.378906 C 629.117188 1220.378906 517.1875 1280.671875 460.746094 1475.640625 L 612.378906 1500.949219 "/>
<path style=" stroke:none;fill-rule:nonzero;fill:rgb(97.65625%,37.255859%,41.575623%);fill-opacity:1;" d="M 992.214844 1500.949219 C 990.472656 1494.191406 988.761719 1487.359375 987.085938 1480.449219 C 963.722656 1384.050781 979.691406 1295.910156 975.476562 1220.378906 C 975.476562 1220.378906 1087.410156 1280.671875 1143.851562 1475.640625 L 992.214844 1500.949219 "/>
<path style="fill:none;stroke-width:65.7489;stroke-linecap:butt;stroke-linejoin:miter;stroke:rgb(10.984802%,10.205078%,23.925781%);stroke-opacity:1;stroke-miterlimit:10;" d="M 11199.21875 11773.203125 C 11199.21875 11773.203125 10739.296875 11786.09375 10624.804688 11704.804688 " transform="matrix(0.1,0,0,-0.1,0,2800)"/>
<path style="fill:none;stroke-width:65.7489;stroke-linecap:butt;stroke-linejoin:miter;stroke:rgb(10.984802%,10.205078%,23.925781%);stroke-opacity:1;stroke-miterlimit:10;" d="M 4819.375 11768.90625 C 4819.375 11768.90625 5048.359375 11802.109375 5417.773438 11708.515625 " transform="matrix(0.1,0,0,-0.1,0,2800)"/>
<path style=" stroke:none;fill-rule:nonzero;fill:rgb(96.484375%,63.084412%,61.914062%);fill-opacity:1;" d="M 654.191406 1652.601562 C 656.847656 1659.230469 677.269531 1708.238281 718.625 1714.949219 C 723.691406 1715.769531 752.386719 1720.421875 763.746094 1704.089844 C 767.808594 1698.25 768.398438 1691.539062 768.195312 1686.691406 C 761.769531 1686.78125 752.546875 1686.648438 741.492188 1685.601562 C 729.011719 1684.421875 721.902344 1683.738281 714.320312 1681.039062 C 707.769531 1678.699219 695.386719 1672.890625 683.695312 1657.070312 C 673.859375 1655.578125 664.023438 1654.089844 654.191406 1652.601562 "/>
<path style=" stroke:none;fill-rule:nonzero;fill:rgb(96.484375%,63.084412%,61.914062%);fill-opacity:1;" d="M 654.164062 1652.601562 C 654.164062 1646.03125 659.488281 1640.699219 666.058594 1640.699219 C 672.628906 1640.699219 677.953125 1646.03125 677.953125 1652.601562 C 677.953125 1659.171875 672.628906 1664.488281 666.058594 1664.488281 C 659.488281 1664.488281 654.164062 1659.171875 654.164062 1652.601562 "/>
<path style=" stroke:none;fill-rule:nonzero;fill:rgb(96.484375%,63.084412%,61.914062%);fill-opacity:1;" d="M 964.828125 1653.03125 C 964.828125 1653.03125 968.621094 1698.140625 890.886719 1715.371094 C 813.148438 1732.609375 845.539062 1690.851562 845.539062 1690.851562 C 845.539062 1690.851562 862.542969 1693.738281 930.96875 1657.488281 L 964.828125 1653.03125 "/>
<path style=" stroke:none;fill-rule:nonzero;fill:rgb(96.484375%,63.084412%,61.914062%);fill-opacity:1;" d="M 926.042969 1653.191406 C 926.042969 1646.621094 931.367188 1641.300781 937.9375 1641.300781 C 944.507812 1641.300781 949.832031 1646.621094 949.832031 1653.191406 C 949.832031 1659.761719 944.507812 1665.089844 937.9375 1665.089844 C 931.367188 1665.089844 926.042969 1659.761719 926.042969 1653.191406 "/>
<path style=" stroke:none;fill-rule:nonzero;fill:rgb(96.484375%,63.084412%,61.914062%);fill-opacity:1;" d="M 849.433594 1718.351562 C 849.433594 1718.351562 823.996094 1711.300781 835.925781 1696.71875 C 847.859375 1682.128906 881.523438 1688.851562 881.523438 1688.851562 L 890.425781 1701.691406 L 884.980469 1709.96875 L 849.433594 1718.351562 "/>
<path style=" stroke:none;fill-rule:nonzero;fill:rgb(96.484375%,63.084412%,61.914062%);fill-opacity:1;" d="M 747 1156.019531 L 754.136719 1051.890625 L 857.867188 1055.019531 L 850.007812 1171.339844 C 850.648438 1192.558594 874.789062 1205.828125 894.359375 1214.058594 L 917.847656 1212.53125 C 911.503906 1244.378906 884.953125 1336.828125 853.136719 1339.089844 C 792.855469 1343.378906 727.019531 1236.941406 695.851562 1203.210938 C 718.519531 1198.78125 743.757812 1178.890625 747 1156.019531 "/>
<path style=" stroke:none;fill-rule:nonzero;fill:rgb(96.484375%,63.084412%,61.914062%);fill-opacity:1;" d="M 904.371094 947.640625 C 904.371094 947.640625 914.570312 974 910.089844 998.910156 C 908.007812 1010.488281 909.546875 1018.328125 911.789062 1023.410156 L 929.503906 1059.730469 C 929.546875 1062.421875 927.945312 1064.878906 925.460938 1065.921875 L 912.21875 1071.46875 C 912.21875 1071.46875 910.320312 1083.730469 915.5625 1089.539062 C 920.214844 1094.691406 908.800781 1100.988281 908.800781 1100.988281 C 908.800781 1100.988281 915.089844 1105.558594 912.886719 1110.960938 C 910.6875 1116.371094 905.1875 1115.078125 905.1875 1115.078125 C 905.1875 1115.078125 907.597656 1133.410156 899.816406 1139.929688 C 877.105469 1158.96875 792.398438 1119.128906 753.011719 1091.078125 C 713.621094 1063.019531 749.347656 931.878906 749.347656 931.878906 L 777.628906 912.148438 L 904.371094 947.640625 "/>
<path style=" stroke:none;fill-rule:nonzero;fill:rgb(10.984802%,10.205078%,23.925781%);fill-opacity:1;" d="M 879.824219 996.179688 C 873.359375 1000.519531 866.894531 1004.851562 860.429688 1009.179688 C 876.089844 1007.339844 891.746094 1005.488281 907.402344 1003.648438 C 907.402344 1003.648438 914.199219 998.398438 912.855469 994.351562 C 912.394531 992.960938 911.144531 992.230469 910.644531 991.929688 C 904.121094 988.089844 883.015625 995.101562 879.824219 996.179688 "/>
<path style=" stroke:none;fill-rule:nonzero;fill:rgb(9.812927%,7.054138%,27.050781%);fill-opacity:1;" d="M 879.300781 954.839844 C 897.921875 943.480469 912.902344 949.160156 916.101562 942.050781 C 921.144531 930.828125 891.222656 898.890625 855.8125 885.238281 C 805.042969 865.671875 719.742188 874.71875 684.625 937.96875 C 640.8125 1016.859375 708.769531 1119.46875 739.679688 1118.199219 C 757.238281 1117.480469 777.539062 1082.648438 776.921875 1052.691406 C 776.390625 1027.109375 761.027344 1016.269531 767.675781 1005.421875 C 778.566406 987.628906 822.3125 1012.679688 850.957031 988.351562 C 864.359375 976.96875 861.855469 965.480469 879.300781 954.839844 "/>
<path style=" stroke:none;fill-rule:nonzero;fill:rgb(96.484375%,63.084412%,61.914062%);fill-opacity:1;" d="M 765.613281 1014.21875 C 765.378906 1001.421875 775.566406 990.859375 788.367188 990.621094 C 801.167969 990.390625 811.730469 1000.578125 811.964844 1013.378906 C 812.199219 1026.179688 802.011719 1036.738281 789.210938 1036.980469 C 776.414062 1037.210938 765.847656 1027.019531 765.613281 1014.21875 "/>
<path style=" stroke:none;fill-rule:nonzero;fill:rgb(10.984802%,10.205078%,23.925781%);fill-opacity:1;" d="M 874.179688 1022.960938 C 874.710938 1021.988281 881.019531 1010.839844 893.472656 1009.800781 C 900.746094 1009.199219 906.230469 1012.359375 908.214844 1013.648438 C 908.214844 1013.648438 907.851562 1014.019531 907.117188 1014.539062 C 907.117188 1014.539062 905.652344 1015.609375 903.804688 1016.289062 C 901.96875 1016.96875 890.296875 1019.699219 874.179688 1022.960938 "/>
<path style="fill:none;stroke-width:65.7489;stroke-linecap:butt;stroke-linejoin:miter;stroke:rgb(10.984802%,10.205078%,23.925781%);stroke-opacity:1;stroke-miterlimit:10;" d="M 6496.953125 12906.09375 C 6538.476562 12862.1875 7077.1875 12440.585938 7817.96875 12769.101562 " transform="matrix(0.1,0,0,-0.1,0,2800)"/>
<path style="fill:none;stroke-width:65.7489;stroke-linecap:butt;stroke-linejoin:miter;stroke:rgb(10.984802%,10.205078%,23.925781%);stroke-opacity:1;stroke-miterlimit:10;" d="M 9100 12518.28125 C 9520.15625 12458.203125 9767.929688 12574.6875 9913.867188 12727.5 C 10078.398438 12899.804688 10135.585938 13148.59375 10074.414062 13378.789062 L 9940.078125 13884.101562 " transform="matrix(0.1,0,0,-0.1,0,2800)"/>
<path style=" stroke:none;fill-rule:nonzero;fill:rgb(82.8125%,83.59375%,98.826599%);fill-opacity:1;" d="M 1326.148438 1960.121094 C 1326.148438 1938.421875 1308.550781 1920.828125 1286.851562 1920.828125 C 1265.148438 1920.828125 1247.558594 1938.421875 1247.558594 1960.121094 C 1247.558594 1981.828125 1265.148438 1999.421875 1286.851562 1999.421875 C 1308.550781 1999.421875 1326.148438 1981.828125 1326.148438 1960.121094 "/>
<path style="fill:none;stroke-width:145.026;stroke-linecap:butt;stroke-linejoin:miter;stroke:rgb(82.8125%,83.59375%,98.826599%);stroke-opacity:1;stroke-miterlimit:10;" d="M 12475.585938 7659.492188 L 13261.484375 7659.492188 " transform="matrix(0.1,0,0,-0.1,0,2800)"/>
<path style=" stroke:none;fill-rule:nonzero;fill:rgb(18.041992%,19.213867%,57.226562%);fill-opacity:1;" d="M 1104 2203.109375 L 332.628906 2203.109375 L 332.628906 2090.421875 L 1104 2090.421875 L 1104 2203.109375 "/>
<path style=" stroke:none;fill-rule:nonzero;fill:rgb(26.660156%,38.818359%,80.46875%);fill-opacity:1;" d="M 593.9375 1974.359375 L 270.539062 1974.359375 L 270.539062 1865.75 L 593.9375 1865.75 L 593.9375 1974.359375 "/>
<path style=" stroke:none;fill-rule:nonzero;fill:rgb(39.598083%,18.821716%,52.929688%);fill-opacity:1;" d="M 1173.011719 2080.621094 C 1124.269531 1990.621094 1060.871094 1877.101562 1012.128906 1787.089844 L 846.933594 1797.679688 C 846.738281 1794.699219 846.613281 1791.691406 846.382812 1788.730469 C 799.0625 1788.859375 751.746094 1789.320312 704.429688 1790.101562 C 660.160156 1790.828125 615.894531 1791.839844 571.640625 1793.128906 C 550.304688 1825.140625 528.15625 1863.558594 508.320312 1908.480469 C 469.082031 1997.371094 453.3125 2079.121094 446.910156 2140.570312 L 446.890625 2140.878906 C 445.40625 2164.691406 461.097656 2184.988281 480.984375 2184.988281 C 697.695312 2166.96875 914.402344 2148.941406 1131.109375 2130.921875 C 1145.078125 2114.148438 1159.039062 2097.390625 1173.011719 2080.621094 "/>
<path style=" stroke:none;fill-rule:nonzero;fill:rgb(26.660156%,38.818359%,80.46875%);fill-opacity:1;" d="M 999.726562 2092.898438 C 993.082031 2044.25 958.109375 2002.519531 909.167969 1983.351562 C 914.976562 1949.101562 911.640625 1922.808594 907.113281 1904.511719 C 899.679688 1874.480469 886.722656 1856.578125 893.554688 1833.371094 C 898.199219 1817.578125 909.785156 1806.878906 919.171875 1800.171875 L 880.957031 1797.679688 C 880.738281 1794.699219 880.601562 1791.691406 880.347656 1788.730469 C 810.507812 1793.941406 637.261719 1786.25 567.425781 1791.460938 C 567.425781 1791.460938 450.714844 1987.148438 440.046875 2140.570312 C 440.039062 2140.671875 440.03125 2140.78125 440.027344 2140.878906 C 438.40625 2164.710938 455.800781 2184.988281 477.734375 2184.988281 L 977.574219 2184.988281 C 984.511719 2174.5 1006.03125 2139.058594 999.726562 2092.898438 "/>
<path style=" stroke:none;fill-rule:nonzero;fill:rgb(97.65625%,87.889099%,82.421875%);fill-opacity:1;" d="M 215.515625 2199.539062 L 325.910156 2199.539062 C 326.929688 2198.859375 327.746094 2198.28125 328.335938 2197.839844 C 336.351562 2191.890625 346.839844 2184.109375 347.875 2173.128906 C 349.964844 2150.921875 311.816406 2132.28125 302.648438 2127.800781 C 290.445312 2121.839844 271.570312 2112.628906 246.976562 2115.851562 C 227.808594 2118.371094 191.792969 2130.199219 188.390625 2155.539062 C 185.992188 2173.390625 200.9375 2189.328125 215.515625 2199.539062 "/>
<path style=" stroke:none;fill-rule:nonzero;fill:rgb(92.96875%,65.429688%,60.742188%);fill-opacity:1;" d="M 362.484375 2157.511719 C 346.125 2156.46875 329.765625 2155.421875 313.40625 2154.378906 C 312.363281 2154.960938 304.925781 2159.308594 303.136719 2168.671875 C 301.304688 2178.261719 306.902344 2185.21875 307.644531 2186.101562 C 323.621094 2186.910156 339.601562 2187.71875 355.582031 2188.53125 C 357.882812 2178.191406 360.183594 2167.851562 362.484375 2157.511719 "/>
<path style=" stroke:none;fill-rule:nonzero;fill:rgb(73.242188%,70.506287%,97.264099%);fill-opacity:1;" d="M 1085.519531 1955.679688 L 505.832031 1955.679688 L 490.023438 1552.238281 L 1101.328125 1552.238281 L 1085.519531 1955.679688 "/>
<path style="fill:none;stroke-width:65.7489;stroke-linecap:butt;stroke-linejoin:miter;stroke:rgb(10.984802%,10.205078%,23.925781%);stroke-opacity:1;stroke-miterlimit:10;" d="M 8442.734375 10460.390625 C 8442.734375 10728.789062 8225.15625 10946.40625 7956.757812 10946.40625 C 7688.359375 10946.40625 7470.78125 10728.789062 7470.78125 10460.390625 C 7470.78125 10191.992188 7688.359375 9974.414062 7956.757812 9974.414062 C 8225.15625 9974.414062 8442.734375 10191.992188 8442.734375 10460.390625 Z M 8442.734375 10460.390625 " transform="matrix(0.1,0,0,-0.1,0,2800)"/>
<path style=" stroke:none;fill-rule:nonzero;fill:rgb(56.443787%,52.929688%,95.701599%);fill-opacity:1;" d="M 1085.519531 1955.679688 L 504.832031 1955.679688 L 504.832031 1930.210938 L 1085.519531 1930.210938 L 1085.519531 1955.679688 "/>
<path style=" stroke:none;fill-rule:nonzero;fill:rgb(18.041992%,19.213867%,57.226562%);fill-opacity:1;" d="M 327.855469 2148.910156 C 324.703125 2154.890625 322.875 2158.359375 319.71875 2164.351562 C 324.167969 2180.078125 326.234375 2187.371094 330.6875 2203.109375 C 330.6875 2203.109375 814.421875 2176.519531 1261.371094 2140.578125 C 1313.75 2109.46875 1344.121094 2050.839844 1339.320312 1990.070312 C 1339.140625 1987.828125 1338.921875 1985.589844 1338.648438 1983.371094 C 1328.539062 1900.308594 1243.988281 1848.449219 1165.21875 1874.289062 C 886.101562 1965.828125 606.976562 2057.371094 327.855469 2148.910156 "/>
<path style=" stroke:none;fill-rule:nonzero;fill:rgb(97.65625%,87.889099%,82.421875%);fill-opacity:1;" d="M 1148.96875 2199.539062 L 1284.929688 2199.539062 C 1293.328125 2190.949219 1299.351562 2180.46875 1298.210938 2168.929688 C 1295.699219 2143.488281 1260.121094 2130.371094 1241.050781 2127.171875 C 1216.578125 2123.070312 1197.398438 2131.601562 1184.988281 2137.128906 C 1175.671875 2141.269531 1136.898438 2158.53125 1138.210938 2180.800781 C 1138.648438 2188.261719 1143.480469 2194.410156 1148.96875 2199.539062 "/>
<path style=" stroke:none;fill-rule:nonzero;fill:rgb(92.96875%,65.429688%,60.742188%);fill-opacity:1;" d="M 1124.148438 2164.671875 C 1140.539062 2164.210938 1156.921875 2163.75 1173.308594 2163.300781 C 1174.328125 2163.921875 1181.609375 2168.53125 1183.070312 2177.949219 C 1184.570312 2187.601562 1178.730469 2194.351562 1177.960938 2195.210938 C 1161.960938 2195.441406 1145.960938 2195.679688 1129.960938 2195.910156 C 1128.03125 2185.5 1126.089844 2175.078125 1124.148438 2164.671875 "/>
<path style=" stroke:none;fill-rule:nonzero;fill:rgb(18.041992%,19.213867%,57.226562%);fill-opacity:1;" d="M 882.269531 2172.300781 C 780.929688 2159.980469 657.09375 2134.480469 522.851562 2082.160156 C 457.886719 2100.148438 392.917969 2118.140625 327.949219 2136.128906 C 324.515625 2141.96875 322.527344 2145.339844 319.097656 2151.179688 C 322.804688 2167.101562 326.523438 2183.03125 330.238281 2198.960938 C 330.238281 2198.960938 574.078125 2192.640625 876.058594 2183.589844 C 878.230469 2179.75 880.324219 2175.96875 882.269531 2172.300781 "/>
<path style=" stroke:none;fill-rule:nonzero;fill:rgb(26.660156%,38.818359%,80.46875%);fill-opacity:1;" d="M 1154.710938 2149.089844 L 292.765625 1868.121094 C 276.863281 1862.679688 259.429688 1863.640625 244.351562 1871.101562 C 201.015625 1892.519531 170.472656 1934.621094 164.738281 1983.390625 C 159.265625 2029.921875 177.132812 2076.101562 211.410156 2107.339844 C 221.53125 2116.558594 234.304688 2122.289062 247.859375 2123.710938 C 450.160156 2144.96875 633.652344 2177.03125 836.4375 2192.210938 C 1014.441406 2205.53125 1147.589844 2200.980469 1147.589844 2200.980469 L 1154.710938 2149.089844 "/>
<path style="fill:none;stroke-width:65.7489;stroke-linecap:butt;stroke-linejoin:miter;stroke:rgb(10.984802%,10.205078%,23.925781%);stroke-opacity:1;stroke-miterlimit:10;" d="M 4467.929688 8941.796875 C 4467.929688 8941.796875 4381.640625 8820.3125 4640.820312 8748.085938 C 4900 8675.898438 7417.070312 7855.390625 7417.070312 7855.390625 " transform="matrix(0.1,0,0,-0.1,0,2800)"/>
<path style="fill:none;stroke-width:65.7489;stroke-linecap:butt;stroke-linejoin:miter;stroke:rgb(10.984802%,10.205078%,23.925781%);stroke-opacity:1;stroke-miterlimit:10;" d="M 7941.171875 16828.007812 C 7941.171875 16828.007812 8303.671875 16629.414062 8521.40625 16587.5 " transform="matrix(0.1,0,0,-0.1,0,2800)"/>
<path style="fill:none;stroke-width:65.7489;stroke-linecap:butt;stroke-linejoin:miter;stroke:rgb(10.984802%,10.205078%,23.925781%);stroke-opacity:1;stroke-miterlimit:10;" d="M 7876.601562 17923.710938 C 7876.601562 17923.710938 7730.703125 17873.515625 7819.375 17692.5 " transform="matrix(0.1,0,0,-0.1,0,2800)"/>
<path style="fill:none;stroke-width:67.3067;stroke-linecap:butt;stroke-linejoin:miter;stroke:rgb(10.984802%,10.205078%,23.925781%);stroke-opacity:1;stroke-miterlimit:10;" d="M 1459.53125 6004.609375 L 24125.703125 6004.609375 " transform="matrix(0.1,0,0,-0.1,0,2800)"/>
<path style=" stroke:none;fill-rule:nonzero;fill:rgb(97.65625%,37.255859%,41.575623%);fill-opacity:1;" d="M 2167.171875 1724.761719 C 2302.121094 1792.519531 2466.449219 1738.050781 2534.210938 1603.089844 C 2601.96875 1468.140625 2547.488281 1303.808594 2412.539062 1236.050781 C 2277.578125 1168.289062 2113.25 1222.761719 2045.488281 1357.71875 C 1977.738281 1492.671875 2032.210938 1657.011719 2167.171875 1724.761719 "/>
<path style=" stroke:none;fill-rule:nonzero;fill:rgb(100%,100%,100%);fill-opacity:1;" d="M 2198.121094 1663.101562 C 2299.019531 1713.761719 2421.890625 1673.03125 2472.550781 1572.128906 C 2523.210938 1471.230469 2482.480469 1348.371094 2381.578125 1297.710938 C 2280.679688 1247.050781 2157.820312 1287.78125 2107.160156 1388.679688 C 2056.5 1489.578125 2097.21875 1612.441406 2198.121094 1663.101562 "/>
<path style=" stroke:none;fill-rule:nonzero;fill:rgb(97.65625%,37.255859%,41.575623%);fill-opacity:1;" d="M 2227.871094 1603.859375 C 2296.050781 1638.089844 2379.070312 1610.570312 2413.300781 1542.390625 C 2447.53125 1474.210938 2420.011719 1391.191406 2351.828125 1356.949219 C 2283.648438 1322.71875 2200.628906 1350.238281 2166.398438 1418.421875 C 2132.171875 1486.601562 2159.691406 1569.628906 2227.871094 1603.859375 "/>
<path style=" stroke:none;fill-rule:nonzero;fill:rgb(52.929688%,32.93457%,68.554688%);fill-opacity:1;" d="M 2678.949219 1168.398438 C 2626.949219 1169.121094 2593.539062 1169.589844 2593.53125 1169.589844 C 2593.53125 1169.589844 2565.148438 1198.769531 2520.980469 1244.179688 C 2551.609375 1243.761719 2582.238281 1243.328125 2612.871094 1242.898438 C 2634.898438 1218.070312 2656.929688 1193.238281 2678.949219 1168.398438 "/>
<path style=" stroke:none;fill-rule:nonzero;fill:rgb(52.929688%,32.93457%,68.554688%);fill-opacity:1;" d="M 2592.351562 1084.171875 C 2593.070312 1136.171875 2593.53125 1169.578125 2593.53125 1169.589844 C 2593.53125 1169.589844 2565.148438 1198.769531 2520.980469 1244.179688 C 2520.558594 1213.550781 2520.128906 1182.921875 2519.710938 1152.289062 C 2543.921875 1129.578125 2568.128906 1106.878906 2592.351562 1084.171875 "/>
<path style=" stroke:none;fill-rule:nonzero;fill:rgb(100%,100%,100%);fill-opacity:1;" d="M 2259.269531 1541.320312 C 2292.910156 1558.210938 2333.878906 1544.628906 2350.769531 1510.988281 C 2367.660156 1477.351562 2354.078125 1436.378906 2320.441406 1419.488281 C 2286.789062 1402.601562 2245.828125 1416.179688 2228.941406 1449.820312 C 2212.039062 1483.460938 2225.628906 1524.429688 2259.269531 1541.320312 "/>
<path style="fill:none;stroke-width:125.29;stroke-linecap:butt;stroke-linejoin:miter;stroke:rgb(10.984802%,10.205078%,23.925781%);stroke-opacity:1;stroke-miterlimit:10;" d="M 26291.484375 16689.296875 L 22903.515625 13205.898438 " transform="matrix(0.1,0,0,-0.1,0,2800)"/>
<path style=" stroke:none;fill-rule:nonzero;fill:rgb(100%,100%,100%);fill-opacity:1;" d="M 1871.5 1811.449219 L 1514.808594 1811.449219 L 1514.808594 1585.058594 L 1871.5 1585.058594 L 1871.5 1811.449219 "/>
<path style="fill:none;stroke-width:125.29;stroke-linecap:butt;stroke-linejoin:miter;stroke:rgb(10.984802%,10.205078%,23.925781%);stroke-opacity:1;stroke-miterlimit:10;" d="M 18378.515625 11935.898438 L 16931.601562 11017.5 L 15473.789062 11942.695312 " transform="matrix(0.1,0,0,-0.1,0,2800)"/>
<path style=" stroke:none;fill-rule:nonzero;fill:rgb(97.65625%,37.255859%,41.575623%);fill-opacity:1;" d="M 1925 1811.828125 C 1925 1783.898438 1902.351562 1761.25 1874.410156 1761.25 C 1846.46875 1761.25 1823.828125 1783.898438 1823.828125 1811.828125 C 1823.828125 1839.769531 1846.46875 1862.421875 1874.410156 1862.421875 C 1902.351562 1862.421875 1925 1839.769531 1925 1811.828125 "/>
<path style=" stroke:none;fill-rule:nonzero;fill:rgb(100%,100%,100%);fill-opacity:1;" d="M 2232.320312 680.179688 L 1841.269531 680.179688 C 1827.441406 680.179688 1816.238281 691.378906 1816.238281 705.210938 L 1816.238281 1096.261719 C 1816.238281 1110.078125 1827.441406 1121.289062 1841.269531 1121.289062 L 2232.320312 1121.289062 C 2246.140625 1121.289062 2257.351562 1110.078125 2257.351562 1096.261719 L 2257.351562 705.210938 C 2257.351562 691.378906 2246.140625 680.179688 2232.320312 680.179688 "/>
<path style=" stroke:none;fill-rule:nonzero;fill:rgb(97.65625%,37.255859%,41.575623%);fill-opacity:1;" d="M 2232.320312 680.179688 L 1841.269531 680.179688 C 1827.441406 680.179688 1816.238281 691.378906 1816.238281 705.210938 L 1816.238281 764.191406 L 2257.351562 764.191406 L 2257.351562 705.210938 C 2257.351562 691.378906 2246.140625 680.179688 2232.320312 680.179688 "/>
<path style=" stroke:none;fill-rule:nonzero;fill:rgb(18.041992%,19.213867%,57.226562%);fill-opacity:1;" d="M 1930.730469 725.390625 C 1930.730469 719.320312 1925.808594 714.398438 1919.75 714.398438 C 1913.679688 714.398438 1908.769531 719.320312 1908.769531 725.390625 C 1908.769531 731.449219 1913.679688 736.371094 1919.75 736.371094 C 1925.808594 736.371094 1930.730469 731.449219 1930.730469 725.390625 "/>
<path style=" stroke:none;fill-rule:nonzero;fill:rgb(18.041992%,19.213867%,57.226562%);fill-opacity:1;" d="M 2153.851562 725.390625 C 2153.851562 719.320312 2148.929688 714.398438 2142.871094 714.398438 C 2136.800781 714.398438 2131.890625 719.320312 2131.890625 725.390625 C 2131.890625 731.449219 2136.800781 736.371094 2142.871094 736.371094 C 2148.929688 736.371094 2153.851562 731.449219 2153.851562 725.390625 "/>
<path style="fill:none;stroke-width:125.29;stroke-linecap:butt;stroke-linejoin:miter;stroke:rgb(10.984802%,10.205078%,23.925781%);stroke-opacity:1;stroke-miterlimit:10;" d="M 21469.414062 20764.609375 C 21355.898438 20764.609375 21263.984375 20958.515625 21263.984375 21197.695312 C 21263.984375 21436.796875 21355.898438 21630.703125 21469.414062 21630.703125 C 21582.8125 21630.703125 21674.804688 21436.796875 21674.804688 21197.695312 " transform="matrix(0.1,0,0,-0.1,0,2800)"/>
<path style=" stroke:none;fill-rule:nonzero;fill:rgb(97.65625%,37.255859%,41.575623%);fill-opacity:1;" d="M 2176.089844 689.628906 L 2158.511719 689.628906 L 2158.511719 680.191406 L 2176.089844 680.191406 L 2176.089844 689.628906 "/>
<path style="fill:none;stroke-width:125.29;stroke-linecap:butt;stroke-linejoin:miter;stroke:rgb(10.984802%,10.205078%,23.925781%);stroke-opacity:1;stroke-miterlimit:10;" d="M 19250 20764.609375 C 19136.484375 20764.609375 19044.492188 20958.515625 19044.492188 21197.695312 C 19044.492188 21436.796875 19136.484375 21630.703125 19250 21630.703125 C 19363.398438 21630.703125 19455.390625 21436.796875 19455.390625 21197.695312 " transform="matrix(0.1,0,0,-0.1,0,2800)"/>
<path style=" stroke:none;fill-rule:nonzero;fill:rgb(97.65625%,37.255859%,41.575623%);fill-opacity:1;" d="M 1952.921875 689.628906 L 1935.320312 689.628906 L 1935.320312 680.191406 L 1952.921875 680.191406 L 1952.921875 689.628906 "/>
<path style="fill:none;stroke-width:86.3147;stroke-linecap:round;stroke-linejoin:miter;stroke:rgb(73.242188%,70.506287%,97.264099%);stroke-opacity:1;stroke-miterlimit:10;" d="M 18970 20121.914062 L 18970 17301.09375 " transform="matrix(0.1,0,0,-0.1,0,2800)"/>
<path style="fill:none;stroke-width:86.3147;stroke-linecap:round;stroke-linejoin:miter;stroke:rgb(73.242188%,70.506287%,97.264099%);stroke-opacity:1;stroke-miterlimit:10;" d="M 20367.890625 20121.914062 L 20367.890625 17301.09375 " transform="matrix(0.1,0,0,-0.1,0,2800)"/>
<path style="fill:none;stroke-width:86.3147;stroke-linecap:round;stroke-linejoin:miter;stroke:rgb(73.242188%,70.506287%,97.264099%);stroke-opacity:1;stroke-miterlimit:10;" d="M 21765.898438 20121.914062 L 21765.898438 17301.09375 " transform="matrix(0.1,0,0,-0.1,0,2800)"/>
<path style="fill:none;stroke-width:86.3147;stroke-linecap:round;stroke-linejoin:miter;stroke:rgb(73.242188%,70.506287%,97.264099%);stroke-opacity:1;stroke-miterlimit:10;" d="M 18970 20121.914062 L 18970 17301.09375 " transform="matrix(0.1,0,0,-0.1,0,2800)"/>
<path style="fill:none;stroke-width:86.3147;stroke-linecap:round;stroke-linejoin:miter;stroke:rgb(73.242188%,70.506287%,97.264099%);stroke-opacity:1;stroke-miterlimit:10;" d="M 20367.890625 20121.914062 L 20367.890625 17301.09375 " transform="matrix(0.1,0,0,-0.1,0,2800)"/>
<path style="fill:none;stroke-width:86.3147;stroke-linecap:round;stroke-linejoin:miter;stroke:rgb(73.242188%,70.506287%,97.264099%);stroke-opacity:1;stroke-miterlimit:10;" d="M 21765.898438 20121.914062 L 21765.898438 17301.09375 " transform="matrix(0.1,0,0,-0.1,0,2800)"/>
<path style="fill:none;stroke-width:86.3147;stroke-linecap:round;stroke-linejoin:miter;stroke:rgb(73.242188%,70.506287%,97.264099%);stroke-opacity:1;stroke-miterlimit:10;" d="M 18490.3125 17732.617188 L 22245.585938 17732.617188 " transform="matrix(0.1,0,0,-0.1,0,2800)"/>
<path style="fill:none;stroke-width:86.3147;stroke-linecap:round;stroke-linejoin:miter;stroke:rgb(73.242188%,70.506287%,97.264099%);stroke-opacity:1;stroke-miterlimit:10;" d="M 18490.3125 18711.484375 L 22245.585938 18711.484375 " transform="matrix(0.1,0,0,-0.1,0,2800)"/>
<path style="fill:none;stroke-width:86.3147;stroke-linecap:round;stroke-linejoin:miter;stroke:rgb(73.242188%,70.506287%,97.264099%);stroke-opacity:1;stroke-miterlimit:10;" d="M 18490.3125 19690.390625 L 22245.585938 19690.390625 " transform="matrix(0.1,0,0,-0.1,0,2800)"/>
<path style=" stroke:none;fill-rule:nonzero;fill:rgb(73.242188%,70.506287%,97.264099%);fill-opacity:1;" d="M 2158 927.011719 C 2158 860.070312 2103.730469 805.808594 2036.789062 805.808594 C 1969.859375 805.808594 1915.589844 860.070312 1915.589844 927.011719 C 1915.589844 993.949219 1969.859375 1048.210938 2036.789062 1048.210938 C 2103.730469 1048.210938 2158 993.949219 2158 927.011719 "/>
<path style="fill:none;stroke-width:125.29;stroke-linecap:butt;stroke-linejoin:miter;stroke:rgb(10.984802%,10.205078%,23.925781%);stroke-opacity:1;stroke-miterlimit:10;" d="M 19983.007812 18690.507812 L 20222.8125 18438.984375 L 20752.890625 19088.59375 " transform="matrix(0.1,0,0,-0.1,0,2800)"/>
<path style=" stroke:none;fill-rule:nonzero;fill:rgb(100%,100%,100%);fill-opacity:1;" d="M 1607.5 1434.929688 L 1271.980469 1435.800781 C 1242.871094 1435.878906 1219.210938 1412.339844 1219.128906 1383.21875 L 1218.261719 1047.710938 C 1218.191406 1018.601562 1241.730469 994.941406 1270.839844 994.859375 L 1538.460938 994.171875 L 1659.378906 1114.539062 L 1660.070312 1382.078125 C 1660.148438 1411.191406 1636.609375 1434.859375 1607.5 1434.929688 "/>
<path style=" stroke:none;fill-rule:nonzero;fill:rgb(73.242188%,70.506287%,97.264099%);fill-opacity:1;" d="M 1538.378906 994.171875 L 1538.898438 1074.660156 C 1539.039062 1096.648438 1556.890625 1114.410156 1578.878906 1114.441406 L 1659.378906 1114.539062 L 1538.378906 994.171875 "/>
<path style=" stroke:none;fill-rule:nonzero;fill:rgb(73.242188%,70.506287%,97.264099%);fill-opacity:1;" d="M 1574.449219 1143.691406 L 1454.03125 1144 L 1454.101562 1170.660156 L 1574.511719 1170.339844 L 1574.449219 1143.691406 "/>
<path style=" stroke:none;fill-rule:nonzero;fill:rgb(73.242188%,70.506287%,97.264099%);fill-opacity:1;" d="M 1574.589844 1199.199219 L 1398.480469 1199.660156 L 1398.550781 1226.308594 L 1574.660156 1225.859375 L 1574.589844 1199.199219 "/>
<path style=" stroke:none;fill-rule:nonzero;fill:rgb(73.242188%,70.506287%,97.264099%);fill-opacity:1;" d="M 1574.730469 1254.710938 L 1398.621094 1255.171875 L 1398.691406 1281.820312 L 1574.800781 1281.371094 L 1574.730469 1254.710938 "/>
<path style=" stroke:none;fill-rule:nonzero;fill:rgb(73.242188%,70.506287%,97.264099%);fill-opacity:1;" d="M 1574.878906 1310.230469 L 1398.769531 1310.679688 L 1398.839844 1337.339844 L 1574.949219 1336.878906 L 1574.878906 1310.230469 "/>
<path style=" stroke:none;fill-rule:nonzero;fill:rgb(73.242188%,70.506287%,97.264099%);fill-opacity:1;" d="M 1347.109375 1156.660156 C 1347.109375 1146.679688 1339.019531 1138.578125 1329.03125 1138.578125 C 1319.039062 1138.578125 1310.949219 1146.679688 1310.949219 1156.660156 C 1310.949219 1166.648438 1319.039062 1174.738281 1329.03125 1174.738281 C 1339.019531 1174.738281 1347.109375 1166.648438 1347.109375 1156.660156 "/>
<path style=" stroke:none;fill-rule:nonzero;fill:rgb(73.242188%,70.506287%,97.264099%);fill-opacity:1;" d="M 1347.109375 1215.078125 C 1347.109375 1205.101562 1339.019531 1197 1329.03125 1197 C 1319.039062 1197 1310.949219 1205.101562 1310.949219 1215.078125 C 1310.949219 1225.070312 1319.039062 1233.160156 1329.03125 1233.160156 C 1339.019531 1233.160156 1347.109375 1225.070312 1347.109375 1215.078125 "/>
<path style=" stroke:none;fill-rule:nonzero;fill:rgb(73.242188%,70.506287%,97.264099%);fill-opacity:1;" d="M 1347.109375 1267.941406 C 1347.109375 1257.949219 1339.019531 1249.859375 1329.03125 1249.859375 C 1319.039062 1249.859375 1310.949219 1257.949219 1310.949219 1267.941406 C 1310.949219 1277.921875 1319.039062 1286.019531 1329.03125 1286.019531 C 1339.019531 1286.019531 1347.109375 1277.921875 1347.109375 1267.941406 "/>
<path style=" stroke:none;fill-rule:nonzero;fill:rgb(73.242188%,70.506287%,97.264099%);fill-opacity:1;" d="M 1347.109375 1323.578125 C 1347.109375 1313.589844 1339.019531 1305.488281 1329.03125 1305.488281 C 1319.039062 1305.488281 1310.949219 1313.589844 1310.949219 1323.578125 C 1310.949219 1333.558594 1319.039062 1341.660156 1329.03125 1341.660156 C 1339.019531 1341.660156 1347.109375 1333.558594 1347.109375 1323.578125 "/>
<path style=" stroke:none;fill-rule:nonzero;fill:rgb(0%,0%,0%);fill-opacity:1;" d="M 1011.921875 2441.929688 L 1007.519531 2451.949219 C 1002.820312 2448.148438 994.777344 2445.730469 988.710938 2445.730469 C 979.910156 2445.730469 969.136719 2449.519531 969.136719 2459.988281 C 969.136719 2476.679688 1013.738281 2471.96875 1013.738281 2500.339844 C 1013.738281 2518.550781 1000.089844 2529.929688 982.339844 2529.929688 C 972.476562 2529.929688 959.882812 2526.589844 951.996094 2520.519531 L 957.609375 2508.988281 C 963.070312 2513.089844 974.601562 2517.640625 981.277344 2517.640625 C 990.683594 2517.640625 1000.238281 2512.941406 1000.238281 2502.46875 C 1000.238281 2482.289062 955.9375 2487.300781 955.9375 2459.53125 C 955.9375 2441.628906 971.566406 2434.039062 987.34375 2434.039062 C 995.539062 2434.039062 1005.699219 2436.320312 1011.921875 2441.929688 "/>
<path style=" stroke:none;fill-rule:nonzero;fill:rgb(0%,0%,0%);fill-opacity:1;" d="M 1048.789062 2429.191406 L 1048.941406 2450.429688 L 1071.699219 2450.429688 L 1071.699219 2461.199219 L 1048.941406 2461.199219 C 1048.941406 2473.640625 1049.089844 2486.078125 1049.089844 2498.371094 C 1049.089844 2505.960938 1049.699219 2518.550781 1059.871094 2518.550781 C 1062.75 2518.550781 1065.628906 2517.488281 1068.058594 2515.820312 L 1072.148438 2525.378906 C 1068.210938 2528.109375 1063.511719 2529.78125 1058.648438 2529.78125 C 1043.328125 2529.78125 1036.960938 2514.910156 1036.960938 2501.558594 L 1036.960938 2461.199219 L 1026.179688 2461.199219 L 1026.179688 2450.429688 L 1036.960938 2450.429688 L 1036.960938 2429.191406 L 1048.789062 2429.191406 "/>
<path style=" stroke:none;fill-rule:nonzero;fill:rgb(0%,0%,0%);fill-opacity:1;" d="M 1091.421875 2503.230469 C 1091.421875 2512.78125 1098.25 2519 1107.960938 2519 C 1114.789062 2519 1122.21875 2516.121094 1126.769531 2510.808594 L 1126.320312 2494.28125 C 1121.921875 2489.71875 1116.300781 2487.601562 1107.960938 2487.601562 C 1099.460938 2487.601562 1091.421875 2494.578125 1091.421875 2503.230469 Z M 1147.859375 2520.070312 L 1143.308594 2529.929688 C 1136.941406 2529.78125 1131.628906 2526.140625 1128.898438 2520.519531 C 1122.828125 2526.589844 1114.328125 2529.929688 1105.839844 2529.929688 C 1089.75 2529.929688 1079.289062 2519.308594 1079.289062 2503.230469 C 1079.289062 2488.808594 1091.730469 2476.21875 1105.839844 2476.21875 C 1114.328125 2476.21875 1121.308594 2478.949219 1126.171875 2482.898438 C 1125.859375 2471.96875 1122.371094 2459.988281 1107.808594 2459.988281 C 1100.371094 2459.988281 1093.238281 2463.480469 1087.628906 2468.179688 L 1083.378906 2459.078125 C 1089.75 2452.710938 1099.621094 2448.761719 1108.71875 2448.761719 C 1155.300781 2448.761719 1126.46875 2520.371094 1147.859375 2520.070312 "/>
<path style=" stroke:none;fill-rule:nonzero;fill:rgb(0%,0%,0%);fill-opacity:1;" d="M 1165.308594 2450.429688 L 1184.28125 2508.078125 L 1203.238281 2450.429688 L 1215.828125 2450.429688 C 1206.878906 2476.679688 1198.988281 2503.230469 1189.28125 2529.171875 C 1185.339844 2539.941406 1180.179688 2556.480469 1166.070312 2556.480469 C 1162.429688 2556.480469 1155.449219 2554.511719 1152.570312 2552.078125 L 1157.269531 2542.671875 C 1159.699219 2544.039062 1162.429688 2545.25 1165.308594 2545.25 C 1172.738281 2545.25 1176.988281 2531.140625 1178.050781 2525.378906 L 1152.261719 2450.429688 L 1165.308594 2450.429688 "/>
<path style=" stroke:none;fill-rule:nonzero;fill:rgb(0%,0%,0%);fill-opacity:1;" d="M 1329.46875 2435.558594 L 1329.46875 2447.699219 L 1282.890625 2447.699219 L 1282.890625 2474.101562 L 1318.851562 2474.101562 L 1318.851562 2486.390625 L 1282.890625 2486.390625 L 1282.890625 2528.410156 L 1270.148438 2528.410156 L 1270.148438 2435.558594 L 1329.46875 2435.558594 "/>
<path style=" stroke:none;fill-rule:nonzero;fill:rgb(0%,0%,0%);fill-opacity:1;" d="M 1353.140625 2489.878906 C 1353.140625 2503.070312 1360.878906 2519.609375 1375.898438 2519.609375 C 1391.53125 2519.609375 1398.660156 2503.378906 1398.660156 2489.878906 C 1398.660156 2476.371094 1391.53125 2460.289062 1375.898438 2460.289062 C 1361.03125 2460.289062 1353.140625 2476.828125 1353.140625 2489.878906 Z M 1411.550781 2489.878906 C 1411.550781 2510.808594 1398.5 2530.378906 1375.898438 2530.378906 C 1353.441406 2530.378906 1340.238281 2510.808594 1340.238281 2489.878906 C 1340.238281 2468.941406 1353.441406 2449.371094 1375.898438 2449.371094 C 1398.5 2449.371094 1411.550781 2468.941406 1411.550781 2489.878906 "/>
<path style=" stroke:none;fill-rule:nonzero;fill:rgb(0%,0%,0%);fill-opacity:1;" d="M 1487.558594 2459.230469 L 1481.800781 2469.089844 C 1477.101562 2464.230469 1469.96875 2460.75 1463.289062 2460.75 C 1447.96875 2460.75 1437.5 2475.011719 1437.5 2489.269531 C 1437.5 2503.378906 1447.660156 2517.640625 1462.679688 2517.640625 C 1469.660156 2517.640625 1476.949219 2514.148438 1481.800781 2509.289062 L 1487.558594 2519.160156 C 1481.191406 2525.828125 1470.269531 2529.929688 1461.171875 2529.929688 C 1438.558594 2529.929688 1424.898438 2510.511719 1424.898438 2489.421875 C 1424.898438 2467.71875 1438.859375 2448.910156 1461.621094 2448.910156 C 1470.570312 2448.910156 1481.5 2452.550781 1487.558594 2459.230469 "/>
<path style=" stroke:none;fill-rule:nonzero;fill:rgb(0%,0%,0%);fill-opacity:1;" d="M 1516.390625 2450.429688 L 1516.390625 2489.421875 C 1516.390625 2501.710938 1517.449219 2517.640625 1533.230469 2517.640625 C 1548.101562 2517.640625 1551.589844 2501.25 1551.589844 2489.421875 L 1551.589844 2450.429688 L 1563.730469 2450.429688 L 1563.730469 2528.410156 L 1551.589844 2528.410156 L 1551.589844 2515.359375 C 1548.398438 2524.769531 1539 2529.929688 1529.441406 2529.929688 C 1510.46875 2529.929688 1504.410156 2514 1504.410156 2497.609375 C 1504.410156 2481.828125 1504.25 2466.210938 1504.25 2450.429688 L 1516.390625 2450.429688 "/>
<path style=" stroke:none;fill-rule:nonzero;fill:rgb(0%,0%,0%);fill-opacity:1;" d="M 1632.761719 2456.191406 L 1628.511719 2465.148438 C 1624.421875 2461.660156 1617.738281 2459.828125 1612.429688 2459.828125 C 1605.910156 2459.828125 1596.199219 2463.628906 1596.199219 2471.058594 C 1596.199219 2486.078125 1634.28125 2479.410156 1634.28125 2506.261719 C 1634.28125 2521.578125 1621.378906 2529.929688 1607.121094 2529.929688 C 1598.46875 2529.929688 1587.699219 2527.050781 1580.71875 2521.890625 L 1586.03125 2511.269531 C 1591.191406 2515.210938 1598.78125 2518.550781 1605.300781 2518.550781 C 1612.890625 2518.550781 1622.140625 2514.449219 1622.140625 2506.109375 C 1622.140625 2487.898438 1584.359375 2496.101562 1584.210938 2471.058594 C 1584.210938 2456.5 1597.261719 2448.761719 1610.609375 2448.761719 C 1617.589844 2448.761719 1628.058594 2450.878906 1632.761719 2456.191406 "/>
<path style=" stroke:none;fill-rule:nonzero;fill:rgb(0%,0%,0%);fill-opacity:1;" d="M 1659.308594 2481.078125 L 1698.460938 2481.078125 C 1698.609375 2469.390625 1692.539062 2459.679688 1679.789062 2459.679688 C 1667.199219 2459.679688 1659.308594 2468.941406 1659.308594 2481.078125 Z M 1709.988281 2483.351562 L 1709.988281 2490.941406 L 1658.859375 2490.941406 C 1658.859375 2504.898438 1667.660156 2518.851562 1682.828125 2518.851562 C 1689.960938 2518.851562 1698.609375 2515.820312 1703.308594 2510.050781 L 1708.621094 2519.460938 C 1702.859375 2526.441406 1691.480469 2529.929688 1682.679688 2529.929688 C 1659.160156 2529.929688 1646.421875 2510.050781 1646.421875 2488.210938 C 1646.421875 2467.71875 1657.039062 2448.761719 1679.640625 2448.761719 C 1700.121094 2448.761719 1709.988281 2464.390625 1709.988281 2483.351562 "/>
<path style=" stroke:none;fill-rule:nonzero;fill:rgb(0%,0%,0%);fill-opacity:1;" d="M 1738.359375 2488.210938 C 1738.359375 2502.46875 1745.03125 2518.550781 1761.570312 2518.550781 C 1768.089844 2518.550781 1775.378906 2515.058594 1779.320312 2509.898438 L 1779.320312 2468.789062 C 1776.140625 2464.078125 1767.03125 2460.75 1761.421875 2460.75 C 1744.160156 2460.75 1738.359375 2474.550781 1738.359375 2488.210938 Z M 1779.320312 2456.5 L 1779.320312 2422.210938 L 1791.160156 2422.210938 L 1791.160156 2528.410156 L 1779.320312 2528.410156 L 1779.320312 2521.890625 C 1773.25 2527.199219 1766.578125 2530.078125 1758.539062 2530.078125 C 1736.691406 2530.078125 1724.859375 2507.929688 1724.859375 2488.359375 C 1724.859375 2466.808594 1736.078125 2448.761719 1759.289062 2448.761719 C 1766.121094 2448.761719 1774.46875 2451.640625 1779.320312 2456.5 "/>
</g>
</svg>
